{
    "asset" : {
        "generator" : "Khronos glTF Blender I/O v1.6.16",
        "version" : "2.0"
    },
    "scene" : 0,
    "scenes" : [
        {
            "name" : "Scene",
            "nodes" : [
                0
            ]
        }
    ],
    "nodes" : [
        {
            "mesh" : 0,
            "name" : "SketchUp",
            "scale" : [
                0.02539999783039093,
                0.02539999783039093,
                0.02539999783039093
            ],
            "translation" : [
                -0.037764254957437515,
                0.07837449014186859,
                -0.04809480905532837
            ]
        }
    ],
    "animations" : [
        {
            "channels" : [
                {
                    "sampler" : 0,
                    "target" : {
                        "node" : 0,
                        "path" : "translation"
                    }
                },
                {
                    "sampler" : 1,
                    "target" : {
                        "node" : 0,
                        "path" : "rotation"
                    }
                },
                {
                    "sampler" : 2,
                    "target" : {
                        "node" : 0,
                        "path" : "scale"
                    }
                }
            ],
            "name" : "SketchUpAction",
            "samplers" : [
                {
                    "input" : 4,
                    "interpolation" : "STEP",
                    "output" : 5
                },
                {
                    "input" : 4,
                    "interpolation" : "STEP",
                    "output" : 6
                },
                {
                    "input" : 4,
                    "interpolation" : "STEP",
                    "output" : 7
                }
            ]
        }
    ],
    "materials" : [
        {
            "doubleSided" : true,
            "name" : "material_0",
            "pbrMetallicRoughness" : {
                "metallicFactor" : 0,
                "roughnessFactor" : 0.5
            }
        }
    ],
    "meshes" : [
        {
            "name" : "ID180",
            "primitives" : [
                {
                    "attributes" : {
                        "POSITION" : 0,
                        "NORMAL" : 1,
                        "TEXCOORD_0" : 2
                    },
                    "indices" : 3,
                    "material" : 0
                }
            ]
        }
    ],
    "accessors" : [
        {
            "bufferView" : 0,
            "componentType" : 5126,
            "count" : 681,
            "max" : [
                380.72613525390625,
                501.1031494140625,
                204.12403869628906
            ],
            "min" : [
                -392.03070068359375,
                -410.64593505859375,
                -205.34051513671875
            ],
            "type" : "VEC3"
        },
        {
            "bufferView" : 1,
            "componentType" : 5126,
            "count" : 681,
            "type" : "VEC3"
        },
        {
            "bufferView" : 2,
            "componentType" : 5126,
            "count" : 681,
            "type" : "VEC2"
        },
        {
            "bufferView" : 3,
            "componentType" : 5123,
            "count" : 966,
            "type" : "SCALAR"
        },
        {
            "bufferView" : 4,
            "componentType" : 5126,
            "count" : 1,
            "max" : [
                0.041666666666666664
            ],
            "min" : [
                0.041666666666666664
            ],
            "type" : "SCALAR"
        },
        {
            "bufferView" : 5,
            "componentType" : 5126,
            "count" : 1,
            "type" : "VEC3"
        },
        {
            "bufferView" : 6,
            "componentType" : 5126,
            "count" : 1,
            "type" : "VEC4"
        },
        {
            "bufferView" : 7,
            "componentType" : 5126,
            "count" : 1,
            "type" : "VEC3"
        }
    ],
    "bufferViews" : [
        {
            "buffer" : 0,
            "byteLength" : 8172,
            "byteOffset" : 0
        },
        {
            "buffer" : 0,
            "byteLength" : 8172,
            "byteOffset" : 8172
        },
        {
            "buffer" : 0,
            "byteLength" : 5448,
            "byteOffset" : 16344
        },
        {
            "buffer" : 0,
            "byteLength" : 1932,
            "byteOffset" : 21792
        },
        {
            "buffer" : 0,
            "byteLength" : 4,
            "byteOffset" : 23724
        },
        {
            "buffer" : 0,
            "byteLength" : 12,
            "byteOffset" : 23728
        },
        {
            "buffer" : 0,
            "byteLength" : 16,
            "byteOffset" : 23740
        },
        {
            "buffer" : 0,
            "byteLength" : 12,
            "byteOffset" : 23756
        }
    ],
    "buffers" : [
        {
            "byteLength" : 23768,
            "uri" : "Beating Heart 2.bin"
        }
    ]
}
